<svg width="140" height="40" viewBox="0 0 140 40" fill="none" xmlns="http://www.w3.org/2000/svg">
<path d="M69.6677 25.5762H64.3476L60.7364 22.277L57.0583 25.5762H51.8767L58.1844 19.9514L52.293 14.5724H57.613L60.8748 17.5471L64.2147 14.5724H69.3237L63.4158 19.8678L69.6677 25.5762Z" fill="#30373A"/>
<path d="M85.109 25.5762H74.6349C73.0202 25.5762 71.9031 25.3591 71.2726 24.9251C70.6479 24.491 70.3326 23.6229 70.3326 22.3158V17.7088C70.3326 16.3869 70.6479 15.5089 71.2838 15.0749C71.9197 14.6408 73.0311 14.4238 74.6295 14.4238H80.9283C82.543 14.4238 83.6768 14.6359 84.3236 15.065C84.9761 15.4892 85.297 16.3573 85.297 17.6644V21.2553H74.0544V22.5969C74.0544 22.7745 74.0986 22.8929 74.1924 22.9472C74.2811 23.0063 74.4416 23.0359 74.6737 23.0359H85.0978V25.5762H85.109ZM81.5754 19.0998V17.3142C81.5754 17.1219 81.5367 17.0035 81.4537 16.9492C81.3708 16.8999 81.2158 16.8703 80.9837 16.8703H74.6849C74.4358 16.8703 74.2754 16.895 74.1924 16.9492C74.1095 16.9985 74.0708 17.1219 74.0708 17.3142V19.0998H81.5754Z" fill="#30373A"/>
<path d="M102.423 25.5762H98.4128V17.5373C98.4128 17.3455 98.3741 17.2275 98.291 17.1734C98.208 17.1243 98.0527 17.0948 97.8203 17.0948H91.6341V25.5713H87.6246V14.5724H98.1416C99.742 14.5724 100.855 14.7937 101.481 15.2313C102.107 15.6689 102.423 16.549 102.423 17.8667V25.5762Z" fill="#30373A"/>
<path d="M113.896 25.5762H109.764C108.122 25.5762 107.026 25.3404 106.464 24.8737C105.908 24.4069 105.626 23.4685 105.626 22.0634V16.998H103.753V14.5857H105.626V11.5985H109.538V14.5857H113.4V16.998H109.538V22.4171C109.538 22.594 109.582 22.7119 109.676 22.766C109.764 22.8249 109.924 22.8544 110.155 22.8544H113.896V25.5762Z" fill="#30373A"/>
<path d="M119.233 25.5762H115.226V17.8913C115.226 16.5441 115.519 15.6541 116.106 15.2215C116.693 14.7888 117.788 14.5724 119.405 14.5724H124.204V17.2521H119.853C119.604 17.2521 119.443 17.2767 119.36 17.3308C119.277 17.3799 119.239 17.5029 119.239 17.6946V25.5762H119.233Z" fill="#30373A"/>
<path d="M139.995 25.5762H129.178C127.534 25.5762 126.437 25.3599 125.874 24.9274C125.317 24.495 125.036 23.6791 125.036 22.48V21.6003C125.036 20.4601 125.339 19.7032 125.946 19.3396C126.553 18.9759 127.672 18.7892 129.299 18.7892H136.271V17.4524C136.271 17.2607 136.233 17.1428 136.15 17.0887C136.067 17.0396 135.913 17.0101 135.681 17.0101H126.023V14.5724H135.759C137.419 14.5724 138.538 14.774 139.123 15.1769C139.708 15.5799 140 16.4744 140 17.8652V25.5762H139.995ZM136.271 23.0501V20.9417H129.299C129.051 20.9417 128.891 20.9663 128.809 21.0204C128.726 21.0695 128.687 21.1924 128.687 21.384V22.6127C128.687 22.7896 128.731 22.9075 128.825 22.9616C128.913 23.0206 129.073 23.0501 129.305 23.0501H136.271Z" fill="#30373A"/>
<path d="M24.2389 22.9369C23.361 22.1523 21.931 22.1523 21.0531 22.9369L10.6346 32.2483C9.75675 33.033 9.75675 34.311 10.6346 35.0954L14.632 38.6682C15.5099 39.4526 16.9399 39.4526 17.8177 38.6682L28.2362 29.3567C29.1141 28.572 29.1141 27.2941 28.2362 26.5095L24.2389 22.9369ZM42.4534 10.2108C40.6146 8.56762 38.5003 7.68926 37.5614 8.15311L34.1824 11.173C33.5754 11.7158 33.5754 12.5991 34.1824 13.1419L39.1738 17.6027C39.7812 18.1455 40.7693 18.1455 41.3767 17.6027L44.7557 14.5828C45.2745 13.7439 44.2864 11.854 42.4534 10.2108Z" fill="#9E8BC1"/>
<path d="M25.4787 18.4697C24.6013 19.2549 24.6013 20.5339 25.4787 21.3192L35.8922 30.6378C36.7696 31.4231 38.1988 31.4231 39.0762 30.6378L43.0718 27.0625C43.9492 26.2773 43.9492 24.9983 43.0718 24.2131L32.6583 14.8943C31.7808 14.1091 30.3515 14.1091 29.4741 14.8943L25.4787 18.4697ZM11.252 2.1828C9.41436 3.82728 8.43207 5.7187 8.9508 6.55824L12.3281 9.58054C12.9352 10.1238 13.923 10.1238 14.53 9.58054L19.5187 5.11622C20.1258 4.573 20.1258 3.68902 19.5187 3.1458L16.1414 0.12348C15.2033 -0.34073 13.0842 0.538307 11.252 2.1828Z" fill="#F4AE4D"/>
<path d="M20.6523 17.0631C21.5303 17.8477 22.9606 17.8477 23.8385 17.0631L34.2585 7.7517C35.1365 6.96713 35.1365 5.6891 34.2585 4.90451L30.2607 1.33194C29.3826 0.547354 27.9525 0.547354 27.0744 1.33194L16.6544 10.6433C15.7764 11.4279 15.7764 12.7059 16.6544 13.4905L20.6523 17.0631ZM2.44075 29.7891C4.27958 31.4322 6.3945 32.3106 7.33324 31.847L10.7127 28.827C11.3201 28.2841 11.3201 27.4009 10.7127 26.8581L5.72082 22.3973C5.11341 21.8545 4.12496 21.8545 3.51755 22.3973L0.138072 25.4172C-0.380997 26.256 0.601921 28.1459 2.44075 29.7891Z" fill="#92C34F"/>
<path d="M19.4125 21.5333C20.2898 20.7482 20.2898 19.4694 19.4125 18.6843L9.0007 9.36205C8.12341 8.57699 6.69433 8.57699 5.81704 9.36205L1.82227 12.9369C0.944965 13.722 0.944965 15.0008 1.82227 15.7859L12.234 25.1032C13.1113 25.8883 14.5404 25.8883 15.4177 25.1032L19.4125 21.5333ZM33.6426 37.8177C35.4798 36.1733 36.4619 34.2823 35.9434 33.4428L32.5666 30.4209C31.9596 29.8778 30.9719 29.8778 30.365 30.4209L25.377 34.8847C24.7701 35.4279 24.7701 36.3117 25.377 36.8549L28.7538 39.8765C29.6918 40.3407 31.8051 39.4618 33.6426 37.8177Z" fill="#1F91CB"/>
</svg>
